<svg xmlns="http://www.w3.org/2000/svg" width="2000" height="2000" viewBox="0 0 2000 2000" version="1.1"><path d="M 1010.969 165.406 C 964.181 173.717, 940.512 219.706, 957.165 269.946 C 973.183 318.271, 1067.209 320.410, 1091.424 273 C 1118.856 219.293, 1070.635 154.807, 1010.969 165.406 M 996.500 387.173 C 904.695 389.551, 806.842 418.663, 725.500 467.800 C 708.699 477.949, 674.554 505.910, 647.150 531.959 C 630.110 548.156, 624.604 554.770, 595.915 593.500 C 574.636 622.228, 552.127 664.004, 542.035 693.500 C 539.213 701.750, 535.850 711.200, 534.563 714.500 C 527.407 732.842, 516.184 776.684, 511.976 802.733 C 506.334 837.663, 512.039 903.127, 524.592 947.500 C 532.805 976.528, 535.701 986.192, 540.776 1001.500 C 546.743 1019.497, 554.200 1035.246, 563.667 1049.843 C 566.755 1054.604, 570.860 1060.975, 572.790 1064 C 588.638 1088.846, 597.408 1100.115, 619.362 1123.847 C 637.496 1143.449, 657.155 1161.536, 674.149 1174.252 C 677.642 1176.866, 683.725 1181.444, 687.666 1184.426 C 752.636 1233.576, 850.859 1267.649, 959.308 1278.658 C 979.615 1280.719, 1067.742 1281.032, 1092 1279.128 C 1174.024 1272.693, 1242.015 1258.440, 1298 1235.944 C 1342.056 1218.241, 1379.684 1200.696, 1390.500 1192.813 C 1392.700 1191.209, 1399 1186.986, 1404.500 1183.428 C 1429.116 1167.502, 1450.420 1147.988, 1459.008 1133.500 C 1460.312 1131.300, 1463.617 1127.025, 1466.351 1124 C 1529.318 1054.348, 1558.483 903.068, 1532.853 779.056 C 1522.115 727.102, 1495.517 660.829, 1470.137 622.795 C 1465.258 615.483, 1460.045 607.082, 1458.554 604.127 C 1455.909 598.888, 1452.837 594.220, 1444.650 583 C 1436.194 571.411, 1415.466 548.645, 1404.718 539.141 C 1398.548 533.685, 1386.927 522.968, 1378.893 515.326 C 1331.835 470.562, 1269.291 436.720, 1182 408.788 C 1178.331 407.614, 1176.729 407.218, 1152.500 401.510 C 1102.574 389.747, 1057.404 385.596, 996.500 387.173 M 973.918 467.044 C 938.197 470.228, 886.639 482.234, 854 494.968 C 820.447 508.059, 805.305 516.071, 759.077 545.194 C 738.626 558.077, 722.086 572.563, 701.635 595.500 C 692.808 605.400, 682.321 617.006, 678.332 621.292 C 585.411 721.099, 555.722 924.825, 616.451 1045.916 C 618.819 1050.637, 622.639 1059.319, 624.939 1065.210 C 641.990 1108.881, 711.393 1182.959, 758.500 1207.767 C 835.660 1248.403, 901.585 1265.575, 994.229 1269.168 C 1107.466 1273.561, 1192.481 1256.654, 1280.500 1212.237 C 1310.822 1196.936, 1352.309 1162.672, 1375.837 1133.500 C 1378.055 1130.750, 1382.637 1125.125, 1386.020 1121 C 1393.328 1112.090, 1409.053 1088.546, 1414.740 1078 C 1444.402 1022.997, 1455.916 985.873, 1459.570 933.458 C 1468.124 810.765, 1447.240 734.121, 1378.520 636 C 1364.018 615.293, 1326.359 577.811, 1293.500 551.377 C 1277.976 538.889, 1236.449 515.602, 1205 501.748 C 1141.504 473.777, 1050.946 460.177, 973.918 467.044 M 998.500 499.129 C 945.014 500.660, 897.939 511.742, 844 535.503 C 838.225 538.047, 829.675 541.616, 825 543.434 C 780.634 560.688, 713.250 620.609, 679.860 672.500 C 644.327 727.720, 632.697 757.534, 620.566 824.500 C 613.496 863.531, 614.319 925.589, 622.384 961.612 C 623.753 967.724, 625.804 977.660, 626.942 983.692 C 638.941 1047.271, 694.009 1125.670, 755.500 1166.716 C 898.266 1262.013, 1169.288 1259.691, 1298.645 1162.062 C 1330.009 1138.392, 1371 1097.547, 1371 1089.967 C 1371 1089.537, 1374.195 1083.631, 1378.100 1076.843 C 1403.665 1032.397, 1411.306 1014.599, 1420.496 978.087 C 1442.967 888.815, 1428.503 782.402, 1383.243 704.012 C 1380.223 698.780, 1375.508 690.225, 1372.767 685 C 1358.168 657.176, 1335.777 630.724, 1298.179 596.888 C 1272.769 574.020, 1243.161 554.066, 1221 544.874 C 1216.875 543.163, 1209.450 539.844, 1204.500 537.499 C 1144.065 508.866, 1079.372 496.816, 998.500 499.129 M 1015.092 522.161 C 1007.210 527.570, 1007.500 525.921, 1007.500 565.370 C 1007.500 596.826, 1007.682 600.867, 1009.199 603.182 C 1014.509 611.282, 1027.878 612.589, 1034.783 605.683 C 1040.959 599.506, 1040.552 531.081, 1034.303 524.832 C 1028.845 519.374, 1020.786 518.254, 1015.092 522.161 M 827.304 567.956 C 815.885 574.919, 817.641 583.892, 837.137 618.182 C 848.986 639.023, 859.992 644.243, 870.317 633.918 C 877.659 626.576, 873.515 614.137, 851.262 576.728 C 845.198 566.533, 835.475 562.974, 827.304 567.956 M 1207.393 568.924 C 1204.431 570.197, 1199.923 575.934, 1195.289 584.326 C 1193.110 588.272, 1188.484 596.450, 1185.010 602.500 C 1172.062 625.043, 1171.398 628.363, 1178.363 635.735 C 1189.532 647.555, 1201.229 641.188, 1213.417 616.654 C 1217.011 609.419, 1221.641 600.350, 1223.707 596.500 C 1232.940 579.295, 1222.868 562.271, 1207.393 568.924 M 689.912 704.280 C 675.060 714.289, 683.452 725.738, 722 748.058 C 745.105 761.436, 766.496 741.112, 746.131 725.130 C 725.971 709.309, 697.899 698.898, 689.912 704.280 M 1341.375 704.970 C 1329.080 709.344, 1302.275 725.032, 1297.265 730.785 C 1286.785 742.819, 1300.159 759.833, 1315.510 753.996 C 1320.629 752.050, 1354.548 730.787, 1358.279 727.185 C 1371.809 714.125, 1359.842 698.399, 1341.375 704.970 M 1262.446 715.504 C 1257.057 718.232, 1220.358 744.656, 1207.500 755.066 C 1196.703 763.807, 1170.130 782.721, 1161.500 787.807 C 1154.855 791.723, 1147.138 797.317, 1113.890 822.322 C 1105.975 828.274, 1097.925 834.259, 1096 835.621 C 1087.047 841.957, 1074.251 851.263, 1060.710 861.288 C 1046.536 871.782, 1045.841 872.166, 1044.026 870.524 C 1024.421 852.781, 989.500 875.487, 989.500 905.977 C 989.500 953.697, 1057.500 952.250, 1063.506 904.403 C 1064.200 898.872, 1076.373 888.930, 1098.273 876.007 C 1102.798 873.338, 1111 867.736, 1116.500 863.560 C 1122 859.383, 1129.729 853.520, 1133.675 850.531 C 1137.621 847.542, 1155.621 834.588, 1173.675 821.743 C 1191.729 808.898, 1208.525 796.920, 1211 795.125 C 1213.475 793.330, 1223.600 786.202, 1233.500 779.286 C 1258.545 761.789, 1279.819 745.857, 1284.190 741.326 C 1299.668 725.281, 1282.771 705.215, 1262.446 715.504 M 820.294 843.476 C 758.235 860.884, 756.879 979.530, 818.606 991.121 C 860.593 999.006, 892.103 961.986, 889.691 907.605 C 887.620 860.890, 857.485 833.044, 820.294 843.476 M 1223.734 845.088 C 1188.602 853.365, 1168.834 917.472, 1189.110 957.373 C 1226.213 1030.386, 1312.077 984.382, 1296.455 899.860 C 1289.349 861.418, 1257.200 837.204, 1223.734 845.088 M 847.290 875.965 C 837.468 881.954, 837.879 898.837, 847.974 903.987 C 863.527 911.921, 878.978 895.774, 870.213 880.746 C 866.493 874.370, 854.134 871.791, 847.290 875.965 M 1252.641 876.898 C 1243.320 883.043, 1243.543 899.565, 1253.019 904.891 C 1267.734 913.161, 1283.624 897.944, 1275.960 882.921 C 1272.076 875.308, 1259.845 872.149, 1252.641 876.898 M 639.195 879.950 C 627.788 881.803, 623.912 897.383, 632.678 906.148 C 637.230 910.701, 684.485 914.224, 698.607 911.063 C 714.185 907.577, 716.359 883.422, 701.407 879.954 C 696.900 878.908, 645.626 878.905, 639.195 879.950 M 1348.402 879.712 C 1337.445 881.098, 1333.205 898.675, 1341.763 907.234 C 1348.693 914.164, 1404.756 914.444, 1411.617 907.583 C 1420.825 898.375, 1415.404 882.107, 1402.419 879.981 C 1396.849 879.069, 1355.128 878.861, 1348.402 879.712 M 948.975 983.790 C 935.588 997.177, 951.200 1033.821, 976 1047.223 C 1027.182 1074.882, 1102.081 1045.942, 1101.994 998.540 C 1101.956 977.631, 1076.688 975.276, 1071.146 995.665 C 1057.805 1044.742, 984.256 1043.865, 973.444 994.500 C 970.196 979.668, 958.302 974.462, 948.975 983.790 M 1292.964 1322.397 C 1291.382 1323.907, 1272.928 1330.460, 1233.500 1343.514 C 1158.412 1368.375, 1107.033 1375.041, 990 1375.106 C 898.543 1375.158, 863.388 1370.973, 820.210 1354.897 C 812.669 1352.090, 805.634 1349.727, 804.576 1349.646 C 802.219 1349.467, 794.383 1369.788, 790.943 1385 C 789.761 1390.225, 787.067 1401.925, 784.955 1411 C 767.880 1484.379, 763.417 1540.667, 774.271 1545.746 C 805.710 1560.458, 844.109 1615.028, 851.500 1655.500 C 852.404 1660.450, 853.337 1665.480, 853.572 1666.677 C 853.808 1667.875, 855.239 1669.500, 856.751 1670.289 C 858.263 1671.078, 863.358 1673.806, 868.074 1676.350 C 926.807 1708.040, 1021.731 1717.808, 1098.301 1700.041 C 1107.919 1697.809, 1106.877 1699.297, 1108.029 1686.163 C 1116.669 1587.711, 1188.657 1525.313, 1254.648 1559.076 C 1261.017 1562.334, 1266.401 1565, 1266.614 1565 C 1267.818 1565, 1266.833 1498.648, 1265.500 1490 C 1264.695 1484.775, 1264.027 1477.800, 1264.016 1474.500 C 1263.998 1469.158, 1263.440 1467.513, 1258.926 1459.500 C 1239.008 1424.140, 1236.217 1411.082, 1247.436 1405.732 C 1258.762 1400.331, 1261.058 1403.298, 1290.003 1460.737 C 1312.214 1504.813, 1308.670 1501.569, 1321.268 1489.352 C 1343.739 1467.561, 1362.380 1459.138, 1394 1456.486 C 1407.319 1455.368, 1407.337 1456.807, 1393.715 1434.797 C 1376.533 1407.036, 1374.960 1404.505, 1371.774 1399.500 C 1357.915 1377.730, 1319.354 1337.356, 1299.820 1324.161 C 1294.385 1320.490, 1294.840 1320.607, 1292.964 1322.397 M 572.166 1350.026 C 544.535 1354.047, 541.625 1401.421, 568.664 1407.034 C 575.829 1408.522, 580.208 1407.638, 583.884 1403.962 C 590.910 1396.936, 593.324 1399.063, 608.496 1425.657 C 626.466 1457.153, 629.686 1459.087, 634.872 1441.498 C 650.330 1389.075, 618.899 1343.225, 572.166 1350.026 M 683.500 1362.050 C 681.300 1362.501, 673.797 1363.413, 666.827 1364.078 C 651.286 1365.560, 651.458 1365.469, 653.507 1371.090 C 662.258 1395.103, 664.496 1406.651, 663.665 1423.500 C 662.689 1443.270, 655.063 1466.163, 646.252 1475.777 C 644.690 1477.481, 645.941 1480.076, 649.424 1482.358 C 657.565 1487.692, 706.409 1480.109, 710.100 1472.938 C 729.075 1436.083, 725.731 1394.253, 701.936 1370.823 C 691.433 1360.480, 691.351 1360.441, 683.500 1362.050 M 508.043 1373.062 C 475.574 1381.563, 464.381 1431.894, 487.229 1466.658 C 522.639 1520.537, 594.433 1513.752, 584.127 1457.500 C 581.610 1443.765, 574.388 1432.799, 566 1429.976 C 542.489 1422.063, 528.792 1404.854, 524.837 1378.259 C 523.580 1369.808, 522.156 1369.367, 508.043 1373.062 M 907.129 1405.114 C 879.656 1409.739, 867.404 1430.660, 866.289 1474.848 C 863.996 1565.796, 888.123 1586.338, 998.858 1587.718 C 1132.190 1589.379, 1158.665 1570.119, 1155.703 1473.617 C 1154.465 1433.276, 1137.283 1407.397, 1110.500 1405.533 C 1096.959 1404.591, 912.495 1404.211, 907.129 1405.114 M 907.018 1433.703 C 887.205 1444.122, 882.747 1516.988, 900.644 1537.897 C 929.884 1572.058, 1111.629 1569.885, 1123.436 1535.234 C 1129.705 1516.836, 1131.061 1463.502, 1125.672 1447.301 C 1120.303 1431.158, 1128.507 1432.284, 1010.500 1431.485 C 912.500 1430.820, 912.500 1430.820, 907.018 1433.703 M 1384.500 1483.446 C 1342.637 1492.067, 1321.114 1515.306, 1329.921 1542.376 C 1334.826 1557.453, 1337.461 1572.312, 1339.355 1595.567 C 1341.504 1621.962, 1344.588 1627.077, 1360.128 1630.024 C 1368.917 1631.691, 1371.842 1629.139, 1373.907 1618 C 1376.674 1603.073, 1378.104 1601, 1385.634 1601 C 1394.760 1601, 1397.295 1609.738, 1392.513 1624.712 C 1389.099 1635.402, 1389.213 1636.412, 1394.250 1640.095 C 1422.007 1660.387, 1458.191 1640.778, 1459.743 1604.603 C 1461.167 1571.428, 1452.704 1539.442, 1431.709 1498.646 C 1421.664 1479.129, 1415.344 1477.094, 1384.500 1483.446" stroke="none" fill="#ffffff" fill-rule="evenodd"/><path d="M 1002 138.457 C 904.875 166.036, 891.064 284.944, 979.819 329.420 C 989.139 334.090, 989.139 334.090, 988.441 345.795 C 987.607 359.784, 989.073 357.950, 977.851 359.041 C 928.391 363.851, 921.368 364.793, 896.500 369.957 C 785.578 392.994, 701.080 436.967, 628.424 509.467 C 558.698 579.043, 504.081 682.130, 488.004 774.500 C 487.334 778.350, 485.526 788.025, 483.986 796 C 482.446 803.975, 480.653 817.700, 480.001 826.500 C 479.349 835.300, 478.182 848.971, 477.408 856.879 C 473.680 894.961, 481.065 964.793, 493.019 1004.500 C 534.467 1142.171, 620.850 1233.276, 759.377 1285.417 C 777.793 1292.349, 777.801 1292.399, 761.897 1300.682 C 753.979 1304.806, 745.025 1309.661, 742 1311.470 C 727.569 1320.100, 705.510 1330.083, 694.500 1332.964 C 690.100 1334.116, 685.375 1335.501, 684 1336.041 C 672.255 1340.661, 630.547 1342.442, 624.500 1338.582 C 606.672 1327.201, 587.717 1322.075, 563.194 1322.004 C 562.475 1322.002, 560.951 1319.862, 559.807 1317.250 C 558.663 1314.638, 556.945 1311.375, 555.989 1310 C 553.012 1305.720, 535 1269.173, 535 1267.413 C 535 1267.045, 533.149 1262.413, 530.887 1257.121 C 525.509 1244.539, 525.624 1236.827, 531.365 1225.028 C 533.364 1220.919, 535 1216.964, 535 1216.241 C 535 1215.517, 536.517 1210.998, 538.370 1206.198 C 557.386 1156.959, 533.713 1093.480, 485.500 1064.428 C 457.327 1047.451, 417.270 1045.370, 407.250 1060.363 C 401.826 1068.480, 401.290 1067.040, 428.895 1118.500 C 444.662 1147.892, 444.981 1150.157, 435.448 1165.065 C 424.787 1181.737, 415.094 1184.951, 395.057 1178.455 C 384.078 1174.895, 381.619 1172.210, 372.201 1153.500 C 346.263 1101.973, 337.243 1094.525, 321.537 1111.669 C 298.004 1137.356, 290.365 1192.452, 305.714 1225.782 C 324.100 1265.707, 355.495 1289.083, 394.777 1292.098 C 425.459 1294.452, 430.136 1297.874, 447.905 1330.969 C 470.665 1373.358, 470.325 1372.197, 463.140 1383.056 C 436.035 1424.017, 460.558 1496.820, 509.060 1519.389 C 512.052 1520.781, 516.415 1523.058, 518.756 1524.448 C 521.097 1525.839, 523.241 1526.925, 523.519 1526.861 C 533.351 1524.597, 538.082 1528.193, 545.427 1543.511 C 567.392 1589.323, 587.819 1603.297, 619.803 1594.390 C 653.792 1584.925, 670.119 1555.861, 661.395 1520.353 C 658.348 1507.953, 657.984 1508.538, 669.338 1507.596 C 688.643 1505.994, 705.199 1502.638, 729 1495.504 C 735.875 1493.443, 742.319 1491.526, 743.321 1491.243 C 744.896 1490.799, 745.064 1491.186, 744.571 1494.115 C 743.617 1499.774, 742.022 1521.062, 741.995 1528.500 C 741.961 1537.718, 742.060 1537.633, 730.500 1538.450 C 681.523 1541.914, 646.076 1580.250, 638.095 1638.387 C 636.257 1651.782, 645.301 1692.465, 655.378 1716.123 C 656.226 1718.116, 656.668 1719.999, 656.359 1720.307 C 656.051 1720.616, 656.284 1721.461, 656.878 1722.184 C 657.471 1722.908, 661.548 1728.950, 665.937 1735.611 C 684.737 1764.144, 712.597 1786.418, 734.673 1790.565 C 776.322 1798.389, 798.502 1794.396, 821.521 1774.931 C 831.927 1766.131, 835.339 1764.530, 846.808 1763.065 C 855.937 1761.899, 867.935 1757.905, 881 1751.683 C 893.513 1745.725, 892.999 1745.744, 921.500 1750.178 C 928.650 1751.291, 937.425 1752.389, 941 1752.619 C 944.575 1752.848, 949.525 1753.409, 952 1753.865 C 954.475 1754.321, 959.431 1754.787, 963.014 1754.901 C 966.597 1755.015, 972.222 1755.497, 975.514 1755.973 C 981.517 1756.840, 1050.803 1756.479, 1063 1755.517 C 1071.319 1754.861, 1077.843 1754.193, 1093 1752.443 C 1094.925 1752.221, 1099.383 1751.784, 1102.906 1751.471 C 1106.430 1751.159, 1110.105 1750.479, 1111.074 1749.960 C 1112.578 1749.155, 1113.385 1750.130, 1116.598 1756.633 C 1137.417 1798.768, 1178.521 1812.325, 1230.944 1794.349 C 1261.804 1783.766, 1291.080 1751.696, 1301.096 1717.500 C 1302.062 1714.200, 1303.734 1709, 1304.811 1705.944 C 1305.888 1702.888, 1307.483 1695.688, 1308.355 1689.944 C 1312.716 1661.213, 1313.019 1652.874, 1310.333 1635.500 C 1308.046 1620.707, 1307.274 1549.626, 1309.453 1554.500 C 1311.931 1560.042, 1316.047 1580.882, 1316.610 1590.736 C 1317.145 1600.099, 1321.855 1620.621, 1325.436 1629.192 C 1332.787 1646.786, 1352.869 1658.416, 1365.300 1652.279 C 1368.837 1650.533, 1371.105 1651.261, 1375.777 1655.644 C 1396.886 1675.443, 1429.213 1676.486, 1456.674 1658.253 C 1497.450 1631.179, 1493.916 1558.612, 1447.724 1474.500 C 1395.151 1378.770, 1352.719 1325.183, 1304.146 1293.176 C 1292.792 1285.694, 1292.792 1285.694, 1300.646 1282.508 C 1437.181 1227.119, 1528.808 1123.994, 1557.429 993.500 C 1558.876 986.900, 1560.910 977.675, 1561.949 973 C 1565.135 958.655, 1567.366 941.204, 1570.128 909 C 1578.142 815.573, 1548.767 697.807, 1494.618 606.279 C 1441.974 517.292, 1352.462 441.771, 1250.500 400.314 C 1244.450 397.854, 1237.475 395.180, 1235 394.370 C 1232.525 393.561, 1229.600 392.476, 1228.500 391.958 C 1202.070 379.516, 1102.922 359.050, 1068.861 359.005 C 1061.768 358.995, 1060.370 356.588, 1061.783 346.813 C 1062.452 342.184, 1063.012 336.845, 1063.027 334.948 C 1063.052 331.664, 1063.374 331.357, 1069.775 328.500 C 1158.482 288.906, 1141.285 161.197, 1044.188 138.477 C 1036.214 136.611, 1008.546 136.598, 1002 138.457 M 1010.969 165.406 C 964.181 173.717, 940.512 219.706, 957.165 269.946 C 973.183 318.271, 1067.209 320.410, 1091.424 273 C 1118.856 219.293, 1070.635 154.807, 1010.969 165.406 M 996.500 387.173 C 904.695 389.551, 806.842 418.663, 725.500 467.800 C 708.699 477.949, 674.554 505.910, 647.150 531.959 C 630.110 548.156, 624.604 554.770, 595.915 593.500 C 574.636 622.228, 552.127 664.004, 542.035 693.500 C 539.213 701.750, 535.850 711.200, 534.563 714.500 C 527.407 732.842, 516.184 776.684, 511.976 802.733 C 506.334 837.663, 512.039 903.127, 524.592 947.500 C 532.805 976.528, 535.701 986.192, 540.776 1001.500 C 546.743 1019.497, 554.200 1035.246, 563.667 1049.843 C 566.755 1054.604, 570.860 1060.975, 572.790 1064 C 588.638 1088.846, 597.408 1100.115, 619.362 1123.847 C 637.496 1143.449, 657.155 1161.536, 674.149 1174.252 C 677.642 1176.866, 683.725 1181.444, 687.666 1184.426 C 752.636 1233.576, 850.859 1267.649, 959.308 1278.658 C 979.615 1280.719, 1067.742 1281.032, 1092 1279.128 C 1174.024 1272.693, 1242.015 1258.440, 1298 1235.944 C 1342.056 1218.241, 1379.684 1200.696, 1390.500 1192.813 C 1392.700 1191.209, 1399 1186.986, 1404.500 1183.428 C 1429.116 1167.502, 1450.420 1147.988, 1459.008 1133.500 C 1460.312 1131.300, 1463.617 1127.025, 1466.351 1124 C 1529.318 1054.348, 1558.483 903.068, 1532.853 779.056 C 1522.115 727.102, 1495.517 660.829, 1470.137 622.795 C 1465.258 615.483, 1460.045 607.082, 1458.554 604.127 C 1455.909 598.888, 1452.837 594.220, 1444.650 583 C 1436.194 571.411, 1415.466 548.645, 1404.718 539.141 C 1398.548 533.685, 1386.927 522.968, 1378.893 515.326 C 1331.835 470.562, 1269.291 436.720, 1182 408.788 C 1178.331 407.614, 1176.729 407.218, 1152.500 401.510 C 1102.574 389.747, 1057.404 385.596, 996.500 387.173 M 973.918 467.044 C 938.197 470.228, 886.639 482.234, 854 494.968 C 820.447 508.059, 805.305 516.071, 759.077 545.194 C 738.626 558.077, 722.086 572.563, 701.635 595.500 C 692.808 605.400, 682.321 617.006, 678.332 621.292 C 585.411 721.099, 555.722 924.825, 616.451 1045.916 C 618.819 1050.637, 622.639 1059.319, 624.939 1065.210 C 641.990 1108.881, 711.393 1182.959, 758.500 1207.767 C 835.660 1248.403, 901.585 1265.575, 994.229 1269.168 C 1107.466 1273.561, 1192.481 1256.654, 1280.500 1212.237 C 1310.822 1196.936, 1352.309 1162.672, 1375.837 1133.500 C 1378.055 1130.750, 1382.637 1125.125, 1386.020 1121 C 1393.328 1112.090, 1409.053 1088.546, 1414.740 1078 C 1444.402 1022.997, 1455.916 985.873, 1459.570 933.458 C 1468.124 810.765, 1447.240 734.121, 1378.520 636 C 1364.018 615.293, 1326.359 577.811, 1293.500 551.377 C 1277.976 538.889, 1236.449 515.602, 1205 501.748 C 1141.504 473.777, 1050.946 460.177, 973.918 467.044 M 998.500 499.129 C 945.014 500.660, 897.939 511.742, 844 535.503 C 838.225 538.047, 829.675 541.616, 825 543.434 C 780.634 560.688, 713.250 620.609, 679.860 672.500 C 644.327 727.720, 632.697 757.534, 620.566 824.500 C 613.496 863.531, 614.319 925.589, 622.384 961.612 C 623.753 967.724, 625.804 977.660, 626.942 983.692 C 638.941 1047.271, 694.009 1125.670, 755.500 1166.716 C 898.266 1262.013, 1169.288 1259.691, 1298.645 1162.062 C 1330.009 1138.392, 1371 1097.547, 1371 1089.967 C 1371 1089.537, 1374.195 1083.631, 1378.100 1076.843 C 1403.665 1032.397, 1411.306 1014.599, 1420.496 978.087 C 1442.967 888.815, 1428.503 782.402, 1383.243 704.012 C 1380.223 698.780, 1375.508 690.225, 1372.767 685 C 1358.168 657.176, 1335.777 630.724, 1298.179 596.888 C 1272.769 574.020, 1243.161 554.066, 1221 544.874 C 1216.875 543.163, 1209.450 539.844, 1204.500 537.499 C 1144.065 508.866, 1079.372 496.816, 998.500 499.129 M 1015.092 522.161 C 1007.210 527.570, 1007.500 525.921, 1007.500 565.370 C 1007.500 596.826, 1007.682 600.867, 1009.199 603.182 C 1014.509 611.282, 1027.878 612.589, 1034.783 605.683 C 1040.959 599.506, 1040.552 531.081, 1034.303 524.832 C 1028.845 519.374, 1020.786 518.254, 1015.092 522.161 M 827.304 567.956 C 815.885 574.919, 817.641 583.892, 837.137 618.182 C 848.986 639.023, 859.992 644.243, 870.317 633.918 C 877.659 626.576, 873.515 614.137, 851.262 576.728 C 845.198 566.533, 835.475 562.974, 827.304 567.956 M 1207.393 568.924 C 1204.431 570.197, 1199.923 575.934, 1195.289 584.326 C 1193.110 588.272, 1188.484 596.450, 1185.010 602.500 C 1172.062 625.043, 1171.398 628.363, 1178.363 635.735 C 1189.532 647.555, 1201.229 641.188, 1213.417 616.654 C 1217.011 609.419, 1221.641 600.350, 1223.707 596.500 C 1232.940 579.295, 1222.868 562.271, 1207.393 568.924 M 689.912 704.280 C 675.060 714.289, 683.452 725.738, 722 748.058 C 745.105 761.436, 766.496 741.112, 746.131 725.130 C 725.971 709.309, 697.899 698.898, 689.912 704.280 M 1341.375 704.970 C 1329.080 709.344, 1302.275 725.032, 1297.265 730.785 C 1286.785 742.819, 1300.159 759.833, 1315.510 753.996 C 1320.629 752.050, 1354.548 730.787, 1358.279 727.185 C 1371.809 714.125, 1359.842 698.399, 1341.375 704.970 M 1262.446 715.504 C 1257.057 718.232, 1220.358 744.656, 1207.500 755.066 C 1196.703 763.807, 1170.130 782.721, 1161.500 787.807 C 1154.855 791.723, 1147.138 797.317, 1113.890 822.322 C 1105.975 828.274, 1097.925 834.259, 1096 835.621 C 1087.047 841.957, 1074.251 851.263, 1060.710 861.288 C 1046.536 871.782, 1045.841 872.166, 1044.026 870.524 C 1024.421 852.781, 989.500 875.487, 989.500 905.977 C 989.500 953.697, 1057.500 952.250, 1063.506 904.403 C 1064.200 898.872, 1076.373 888.930, 1098.273 876.007 C 1102.798 873.338, 1111 867.736, 1116.500 863.560 C 1122 859.383, 1129.729 853.520, 1133.675 850.531 C 1137.621 847.542, 1155.621 834.588, 1173.675 821.743 C 1191.729 808.898, 1208.525 796.920, 1211 795.125 C 1213.475 793.330, 1223.600 786.202, 1233.500 779.286 C 1258.545 761.789, 1279.819 745.857, 1284.190 741.326 C 1299.668 725.281, 1282.771 705.215, 1262.446 715.504 M 820.294 843.476 C 758.235 860.884, 756.879 979.530, 818.606 991.121 C 860.593 999.006, 892.103 961.986, 889.691 907.605 C 887.620 860.890, 857.485 833.044, 820.294 843.476 M 1223.734 845.088 C 1188.602 853.365, 1168.834 917.472, 1189.110 957.373 C 1226.213 1030.386, 1312.077 984.382, 1296.455 899.860 C 1289.349 861.418, 1257.200 837.204, 1223.734 845.088 M 847.290 875.965 C 837.468 881.954, 837.879 898.837, 847.974 903.987 C 863.527 911.921, 878.978 895.774, 870.213 880.746 C 866.493 874.370, 854.134 871.791, 847.290 875.965 M 1252.641 876.898 C 1243.320 883.043, 1243.543 899.565, 1253.019 904.891 C 1267.734 913.161, 1283.624 897.944, 1275.960 882.921 C 1272.076 875.308, 1259.845 872.149, 1252.641 876.898 M 639.195 879.950 C 627.788 881.803, 623.912 897.383, 632.678 906.148 C 637.230 910.701, 684.485 914.224, 698.607 911.063 C 714.185 907.577, 716.359 883.422, 701.407 879.954 C 696.900 878.908, 645.626 878.905, 639.195 879.950 M 1348.402 879.712 C 1337.445 881.098, 1333.205 898.675, 1341.763 907.234 C 1348.693 914.164, 1404.756 914.444, 1411.617 907.583 C 1420.825 898.375, 1415.404 882.107, 1402.419 879.981 C 1396.849 879.069, 1355.128 878.861, 1348.402 879.712 M 948.975 983.790 C 935.588 997.177, 951.200 1033.821, 976 1047.223 C 1027.182 1074.882, 1102.081 1045.942, 1101.994 998.540 C 1101.956 977.631, 1076.688 975.276, 1071.146 995.665 C 1057.805 1044.742, 984.256 1043.865, 973.444 994.500 C 970.196 979.668, 958.302 974.462, 948.975 983.790 M 1292.964 1322.397 C 1291.382 1323.907, 1272.928 1330.460, 1233.500 1343.514 C 1158.412 1368.375, 1107.033 1375.041, 990 1375.106 C 898.543 1375.158, 863.388 1370.973, 820.210 1354.897 C 812.669 1352.090, 805.634 1349.727, 804.576 1349.646 C 802.219 1349.467, 794.383 1369.788, 790.943 1385 C 789.761 1390.225, 787.067 1401.925, 784.955 1411 C 767.880 1484.379, 763.417 1540.667, 774.271 1545.746 C 805.710 1560.458, 844.109 1615.028, 851.500 1655.500 C 852.404 1660.450, 853.337 1665.480, 853.572 1666.677 C 853.808 1667.875, 855.239 1669.500, 856.751 1670.289 C 858.263 1671.078, 863.358 1673.806, 868.074 1676.350 C 926.807 1708.040, 1021.731 1717.808, 1098.301 1700.041 C 1107.919 1697.809, 1106.877 1699.297, 1108.029 1686.163 C 1116.669 1587.711, 1188.657 1525.313, 1254.648 1559.076 C 1261.017 1562.334, 1266.401 1565, 1266.614 1565 C 1267.818 1565, 1266.833 1498.648, 1265.500 1490 C 1264.695 1484.775, 1264.027 1477.800, 1264.016 1474.500 C 1263.998 1469.158, 1263.440 1467.513, 1258.926 1459.500 C 1239.008 1424.140, 1236.217 1411.082, 1247.436 1405.732 C 1258.762 1400.331, 1261.058 1403.298, 1290.003 1460.737 C 1312.214 1504.813, 1308.670 1501.569, 1321.268 1489.352 C 1343.739 1467.561, 1362.380 1459.138, 1394 1456.486 C 1407.319 1455.368, 1407.337 1456.807, 1393.715 1434.797 C 1376.533 1407.036, 1374.960 1404.505, 1371.774 1399.500 C 1357.915 1377.730, 1319.354 1337.356, 1299.820 1324.161 C 1294.385 1320.490, 1294.840 1320.607, 1292.964 1322.397 M 572.166 1350.026 C 544.535 1354.047, 541.625 1401.421, 568.664 1407.034 C 575.829 1408.522, 580.208 1407.638, 583.884 1403.962 C 590.910 1396.936, 593.324 1399.063, 608.496 1425.657 C 626.466 1457.153, 629.686 1459.087, 634.872 1441.498 C 650.330 1389.075, 618.899 1343.225, 572.166 1350.026 M 683.500 1362.050 C 681.300 1362.501, 673.797 1363.413, 666.827 1364.078 C 651.286 1365.560, 651.458 1365.469, 653.507 1371.090 C 662.258 1395.103, 664.496 1406.651, 663.665 1423.500 C 662.689 1443.270, 655.063 1466.163, 646.252 1475.777 C 644.690 1477.481, 645.941 1480.076, 649.424 1482.358 C 657.565 1487.692, 706.409 1480.109, 710.100 1472.938 C 729.075 1436.083, 725.731 1394.253, 701.936 1370.823 C 691.433 1360.480, 691.351 1360.441, 683.500 1362.050 M 508.043 1373.062 C 475.574 1381.563, 464.381 1431.894, 487.229 1466.658 C 522.639 1520.537, 594.433 1513.752, 584.127 1457.500 C 581.610 1443.765, 574.388 1432.799, 566 1429.976 C 542.489 1422.063, 528.792 1404.854, 524.837 1378.259 C 523.580 1369.808, 522.156 1369.367, 508.043 1373.062 M 907.129 1405.114 C 879.656 1409.739, 867.404 1430.660, 866.289 1474.848 C 863.996 1565.796, 888.123 1586.338, 998.858 1587.718 C 1132.190 1589.379, 1158.665 1570.119, 1155.703 1473.617 C 1154.465 1433.276, 1137.283 1407.397, 1110.500 1405.533 C 1096.959 1404.591, 912.495 1404.211, 907.129 1405.114 M 907.018 1433.703 C 887.205 1444.122, 882.747 1516.988, 900.644 1537.897 C 929.884 1572.058, 1111.629 1569.885, 1123.436 1535.234 C 1129.705 1516.836, 1131.061 1463.502, 1125.672 1447.301 C 1120.303 1431.158, 1128.507 1432.284, 1010.500 1431.485 C 912.500 1430.820, 912.500 1430.820, 907.018 1433.703 M 1384.500 1483.446 C 1342.637 1492.067, 1321.114 1515.306, 1329.921 1542.376 C 1334.826 1557.453, 1337.461 1572.312, 1339.355 1595.567 C 1341.504 1621.962, 1344.588 1627.077, 1360.128 1630.024 C 1368.917 1631.691, 1371.842 1629.139, 1373.907 1618 C 1376.674 1603.073, 1378.104 1601, 1385.634 1601 C 1394.760 1601, 1397.295 1609.738, 1392.513 1624.712 C 1389.099 1635.402, 1389.213 1636.412, 1394.250 1640.095 C 1422.007 1660.387, 1458.191 1640.778, 1459.743 1604.603 C 1461.167 1571.428, 1452.704 1539.442, 1431.709 1498.646 C 1421.664 1479.129, 1415.344 1477.094, 1384.500 1483.446" stroke="none" fill="#1d2626" fill-rule="evenodd"/></svg>